<svg xmlns="http://www.w3.org/2000/svg" enable-background="new 0 0 100 100" viewBox="0 0 100 100" id="image-preview">
  <path d="M28.8148708,44.4912338c1.2567616-1.255909,2.4189606-1.2608299,3.6576138-0.0073471
	c2.5587387,2.5874825,8.5522995,8.6911621,9.0997353,9.2591362c0.2326355-0.301609,15.6892281-15.8527641,23.2568436-23.4203777
	c1.3808594-1.3800049,2.4452744-1.3972645,3.813797-0.0320244c3.6608963,3.6518383,7.3152924,7.3111553,10.9687729,10.9704113
	c2.1469498,2.1502304,4.2864151,4.3069611,6.4300232,6.4604721c0.0534821-0.0254593,0.1668777-17.0297909,0.1586761-25.1941242
	c-0.0041351-3.9741173-2.9770889-6.9059296-6.9708939-6.9067831c-18.9613686-0.0008526-58.948761-0.0969915-59.9638939,0.116745
	c-3.2787008,0.6903639-5.4724417,3.4102106-5.4732952,6.7900381C13.786541,34.5942993,13.788969,59.1390762,13.788969,59.4834709
	C14.0733824,59.2122498,24.0221615,49.2807312,28.8148708,44.4912338z M41.6157951,25.8940163
	c3.7570992,0.0501366,6.7234955,3.1661568,6.6650887,7.0013466c-0.055912,3.6674576-3.1742935,6.6527519-6.9231873,6.5919189
	c-3.6666718-0.0599785-6.7210045-3.1916161-6.6223717-6.8771858C34.7838211,28.8530636,37.8668976,25.8438797,41.6157951,25.8940163
	z M85.7500916,53.8322067c0.3330383,0.3320541,0.4644165,0.662735,0.4636307,1.1278763
	c-0.0131226,7.5413666-0.0048599,15.0827332-0.0133209,22.6240997c-0.0042648,3.798111-2.9923172,6.7925262-6.7801971,6.8085403
	c-2.2981491,0.0096512-4.5964279-0.0039978-6.894577,0.006958c-0.3781891,0.00177-0.6750031-0.0724487-0.9576492-0.3590927
	C62.710331,75.0575333,44.823555,56.9266357,44.8498688,56.9569511
	c7.2613487-7.3845253,14.5081978-14.7542839,21.6868591-22.0547447
	C66.9726028,34.9682922,79.5790176,47.680294,85.7500916,53.8322067z M30.6734047,49.1297302
	c11.5650291,11.7155037,23.1107635,23.4126968,34.8171501,35.2715912c-1.3265228,0-15.5846939,0.0018997-28.6875496-0.0026245
	v0.0030212H20.9286499c-3.9434032,0-7.1402063-3.1968079-7.1402063-7.140213V72.892601l-0.0005903-0.0003281
	c0-2.1422958,0.0020342-4.2834702-0.0009842-6.4246445c-0.00105-0.3680191,0.0396366-0.6700211,0.3344851-0.9608002
	C19.4966717,60.1864357,30.5066547,49.2740364,30.6734047,49.1297302z M87.7310791,4.0905457H12.2689228
	c-5.4017649,0-9.7817659,4.3789511-9.7817659,9.781765v59.0199623v13.2354126c0,5.4018326,4.3800011,9.7817688,9.7817659,9.7817688
	h23.2470646h28.9680214h23.2470703c5.4017639,0,9.7817612-4.3799362,9.7817612-9.7817688V72.8922729V13.8723106
	C97.5128403,8.4694967,93.132843,4.0905457,87.7310791,4.0905457z M90.2799759,72.8922729v6.9989777
	c0,4.8517075-3.9336319,8.7854004-8.7854004,8.7854004h-17.178299H35.6837234H18.5054226
	c-4.8517704,0-8.7853975-3.9336929-8.7853975-8.7854004v-6.9989777V20.1097298c0-4.8526888,3.9336271-8.7863817,8.7863817-8.7863817
	h62.9871826c4.8527527,0,8.7863846,3.9336929,8.7863846,8.7863817V72.8922729z" class="Graphic_x0020_Style_x0020_4"></path>
</svg>
